PathFileType	4	(X/Y/Z)	 s08c0401.trc
DataRate	CameraRate	NumFrames	NumMarkers	Units	OrigDataRate	OrigDataStartFrame	OrigNumFrames
200	200	4	50	mm	200	1751	2000
Frame#	Time	racr			lacr			c7			jug			rlel			rdr			llel			ldr			s2			lic			ric			lasi			rasi			rpsi			lpsi			rgt			lgt			rth1			rth2			rth3			rth4			rlfc			rmfc			rsh1			rsh2			rsh3			rsh4			rlmal			rmmal			rcal			rtoe			rmt5			lth1			lth2			lth4			lth3			llfc			lmfc			llmal			lmmal			lcal			lmt5			lsh1			lsh2			lsh3			lsh4			ltoe			SBIKE			LBIKE			RBIKE			
		X1	Y1	Z1	X2	Y2	Z2	X3	Y3	Z3	X4	Y4	Z4	X5	Y5	Z5	X6	Y6	Z6	X7	Y7	Z7	X8	Y8	Z8	X9	Y9	Z9	X10	Y10	Z10	X11	Y11	Z11	X12	Y12	Z12	X13	Y13	Z13	X14	Y14	Z14	X15	Y15	Z15	X16	Y16	Z16	X17	Y17	Z17	X18	Y18	Z18	X19	Y19	Z19	X20	Y20	Z20	X21	Y21	Z21	X22	Y22	Z22	X23	Y23	Z23	X24	Y24	Z24	X25	Y25	Z25	X26	Y26	Z26	X27	Y27	Z27	X28	Y28	Z28	X29	Y29	Z29	X30	Y30	Z30	X31	Y31	Z31	X32	Y32	Z32	X33	Y33	Z33	X34	Y34	Z34	X35	Y35	Z35	X36	Y36	Z36	X37	Y37	Z37	X38	Y38	Z38	X39	Y39	Z39	X40	Y40	Z40	X41	Y41	Z41	X42	Y42	Z42	X43	Y43	Z43	X44	Y44	Z44	X45	Y45	Z45	X46	Y46	Z46	X47	Y47	Z47	X48	Y48	Z48	X49	Y49	Z49	X50	Y50	Z50	
1751	8.7550	555.496851	1412.227738	-90.154321	524.607943	1403.731015	-426.117413	521.335495	1470.747031	-253.561928	492.495780	1313.152745	-243.663848	603.101274	1170.876257	35.343294	773.411394	928.630665	-38.828995	603.237312	1153.108423	-496.532908	785.077327	930.454261	-414.713145	-39.759680	1226.187895	-216.586305	121.015485	1219.913653	-367.268986	138.778093	1219.951302	-57.999717	141.154493	1176.363982	-325.507429	149.540644	1153.006684	-87.134135	-0.666165	1260.194627	-160.411143	-4.159278	1269.425217	-255.237494	37.655549	1104.740114	-25.273403	72.570819	1138.920429	-409.620746	133.077216	953.661867	-14.355081	197.528168	892.251632	-15.437179	222.463891	809.516198	-28.699870	228.571578	911.776216	-24.122346	278.857328	708.273164	-46.358168	262.986278	700.994239	-155.888240	195.945770	605.348715	-17.629755	181.432654	518.330233	-37.953076	126.427181	452.791013	-46.843024	210.207930	510.976069	-65.923329	67.859001	350.440760	-57.104373	57.439600	411.899217	-150.416716	-7.985162	356.234984	-107.986925	252.142680	212.415950	-97.624788	157.380705	224.442451	-34.287001	177.248046	1067.679835	-410.194753	264.145239	1050.631926	-412.072302	279.048620	1078.725259	-393.951435	328.201051	989.291174	-415.396302	428.056153	900.980793	-393.490846	436.162565	874.167333	-283.944552	323.581889	494.545751	-395.443329	348.704679	513.671422	-309.700434	251.673716	468.665113	-359.042993	460.326112	409.219298	-411.861185	404.661826	777.766959	-417.352338	400.755690	693.085913	-400.463736	357.885092	616.255604	-403.479136	422.684425	690.195210	-367.462220	539.322819	437.425148	-339.224248	-135.197009	945.003602	-221.842894	26.850865	84.752748	-426.719410	18.324808	80.295224	-28.240068	
1752	8.7600	554.655494	1412.007150	-89.415765	523.402422	1403.204339	-423.131470	520.624621	1470.474017	-253.261874	491.928433	1312.838586	-243.105526	602.512631	1170.545933	35.478851	773.376035	928.655472	-39.370858	603.243644	1153.253727	-495.915758	784.859796	930.217410	-414.291690	-40.151786	1225.662597	-217.844130	121.094633	1219.021037	-367.876547	137.506419	1220.442410	-58.267084	141.252271	1175.415393	-326.198060	151.592638	1154.677040	-84.820428	-1.685423	1260.212528	-161.451372	-4.740952	1268.839900	-256.407023	37.412511	1105.442189	-25.274586	72.207268	1136.338319	-409.223835	136.243879	956.449834	-14.813824	201.847698	896.303242	-15.913207	228.186977	813.923061	-28.443867	232.408449	916.367924	-24.872588	285.197188	712.945116	-45.616439	269.714134	705.670046	-155.497370	199.742742	611.773805	-17.250867	183.319538	525.219397	-37.647798	126.706705	461.063763	-46.674668	211.929097	517.140156	-65.543712	65.590525	360.516902	-56.996859	56.046139	418.105593	-150.434133	-10.293729	367.724846	-107.892967	247.467465	219.586632	-97.640336	152.913603	233.242551	-34.255629	176.216441	1062.990877	-410.098381	262.789079	1044.380179	-411.981975	278.198963	1072.270286	-393.979510	325.597216	981.574681	-414.306359	424.112152	892.434250	-392.578391	432.858847	866.515738	-281.323399	327.218800	483.903048	-395.363821	351.933152	503.369553	-309.489856	255.558279	457.454845	-359.175308	464.905497	400.088756	-411.816819	402.374286	768.655045	-416.686782	400.363735	683.811129	-400.063661	359.004203	606.162006	-403.407583	422.273766	681.500119	-367.028511	543.680370	429.147349	-339.342996	-135.196946	944.983415	-221.833660	26.841530	84.724268	-426.725731	18.334461	80.299327	-28.252661	
1753	8.7650	553.803782	1411.815162	-88.522390	522.958513	1403.547912	-422.539102	519.939767	1470.234231	-252.869638	491.386807	1312.512529	-242.570448	601.807717	1170.156040	35.606973	773.268277	928.638748	-39.414869	603.217894	1153.408861	-495.271260	784.965590	929.934542	-414.029851	-40.422978	1224.864198	-219.340827	121.119827	1217.892897	-368.352103	136.244329	1220.814883	-58.697827	141.401133	1174.385426	-326.903281	147.745138	1154.605402	-87.812054	-2.709936	1260.204398	-162.525061	-5.213880	1267.966575	-257.602333	37.288402	1105.968127	-25.323176	71.794330	1133.351316	-408.799315	139.318281	959.245217	-15.320873	206.095083	900.437446	-16.155381	234.016466	818.469392	-28.126898	236.247243	920.966578	-25.592343	291.642019	717.907704	-44.790511	276.314474	710.725585	-154.853007	203.944532	618.444752	-16.846998	185.235597	532.516501	-38.518170	127.428772	469.609753	-46.476163	213.930459	523.880572	-65.850846	63.923343	370.879711	-56.836081	55.434672	424.443266	-150.380541	-11.876829	379.477300	-107.765498	243.364883	227.137209	-97.658338	149.044122	242.212471	-34.332961	175.081061	1057.889877	-410.094062	261.278732	1037.673926	-411.734147	277.403121	1065.409316	-394.782526	322.919432	973.573408	-413.497525	419.996839	883.542713	-391.485878	427.698373	856.496563	-283.079759	330.273740	473.217830	-395.363612	355.387510	492.832719	-309.755900	259.015089	446.194920	-359.232606	468.913535	390.769304	-411.832411	399.840546	759.230539	-416.044033	399.890079	674.374933	-399.843002	359.945697	595.840644	-403.148622	421.576264	672.369645	-366.435416	547.485164	420.475039	-339.416373	-135.217557	944.959130	-221.811002	26.657143	84.370792	-426.441137	18.315081	80.297238	-28.216265	
1754	8.7700	552.727312	1411.619353	-87.700989	522.541976	1403.963410	-421.989583	519.227289	1470.006334	-252.426680	490.714547	1312.131779	-242.112996	601.144339	1169.796992	35.709447	773.213177	928.904740	-39.177749	603.160824	1153.545729	-494.481990	784.370234	929.879605	-413.225918	-41.155242	1224.137421	-220.083172	138.208343	1223.272537	-386.437924	135.061364	1221.030567	-59.112541	141.519748	1173.030315	-327.432501	147.036054	1155.388929	-88.116721	-0.502078	1259.811788	-164.469052	-5.750894	1266.920018	-258.695266	37.196662	1106.305965	-25.413535	71.316002	1130.003226	-408.328718	142.416261	962.050784	-15.723671	210.340933	904.593000	-16.549686	239.760993	823.126894	-27.697972	240.064998	925.677719	-26.305379	298.119427	722.996933	-43.938356	282.296697	716.099297	-154.314159	208.335962	625.482845	-16.503879	187.974481	539.904028	-37.323243	128.741422	478.288876	-46.137693	216.445365	530.624116	-65.286520	62.974503	381.402293	-56.666303	55.641098	430.903180	-150.251923	-12.914121	391.507431	-107.710683	239.736747	234.603292	-97.793638	145.763370	251.385935	-34.295725	173.930189	1052.381239	-410.039243	259.641087	1030.416328	-411.586569	276.310992	1057.990366	-395.033901	320.149660	965.109910	-412.666802	415.481966	874.535602	-390.420073	423.021803	847.026206	-282.490767	332.592750	462.603820	-395.467037	357.490123	482.171113	-309.857077	262.375700	434.869732	-359.155885	472.403509	381.192990	-411.826139	397.029861	749.495270	-415.454861	398.877634	664.671025	-399.487712	360.469909	585.362084	-402.893962	420.418357	663.109854	-366.141926	550.688782	411.509803	-339.464576	-135.252377	944.939810	-221.766137	26.641898	84.516705	-426.538123	18.319234	80.289780	-28.241711	
